{"title":"Star Wars Episode VII The Force Awakens 2015 1080p BluRay x264-R","uid":13990661,"size":11765434988,"categoryP":"video","categoryS":"hd___movies","magnet":"?xt=urn:btih:3585624c265178ef3e4678577186bc1e8a5d3534&amp;dn=Star+Wars+Episode+VII+The+Force+Awakens+2015+1080p+BluRay+x264-R&amp;tr=udp%3A%2F%2Ftracker.leechers-paradise.org%3A6969&amp;tr=udp%3A%2F%2Fzer0day.ch%3A1337&amp;tr=udp%3A%2F%2Fopen.demonii.com%3A1337&amp;tr=udp%3A%2F%2Ftracker.coppersurfer.tk%3A6969&amp;tr=udp%3A%2F%2Fexodus.desync.com%3A6969","seeders":9,"leechers":4,"uploader":"makintos13","files":6,"time":1458705367,"description":"Star Wars Episode VII The Force Awakens 2015 1080p BluRay x264-Replica\r\n\r\nScreens:\r\n \nhttp://imgmak.com/K2w\r\n\r\n::::::::::::\r\n\r\nR E P L i C A P R E S E N T S . . .\r\n\r\nStar Wars: Episode VII - The Force Awakens\r\n\r\nViDEO TYPE..: Bluray RUNTiME.....: 138 min\r\nSTORE DATE..: 4/5/2015 RLS DATE....: 3/22/2016\r\niMDB RATiNG.: 8.4 (459,389)\r\nGENRE.......: Action Adventure Fantasy\r\n\r\niMDB LiNK...: http://www.imdb.com/title/tt2488496/\r\n\r\nR i P P E R ' S N O T E S . . .\r\n\r\nMain Movie .....:\r\nVideo - 9825 Kbps\r\nAudio - 1509 Kbps DTS\r\nSubs - Eng, Esp, Fre\r\n\r\nExtras .........:\r\n\r\nRipped .........:\r\n\r\nAdditional Notes .........:\r\n\r\nASCii BY   \r\n\r\n[mediainfo]\r\nVideo\r\nID : 1\r\nFormat : AVC\r\nFormat/Info : Advanced Video Codec\r\nFormat profile :   \r\nFormat settings, CABAC : Yes\r\nFormat settings, ReFrames : 5 frames\r\nCodec ID : V_MPEG4/ISO/AVC\r\nDuration : 2h 18mn\r\nBit rate : 9 825 Kbps\r\nWidth : 1 920 pixels\r\nHeight : 800 pixels\r\nDisplay aspect ratio : 2.40:1\r\nFrame rate mode : Constant\r\nFrame rate : 23.976 (24000/1001) fps\r\nColor space : YUV\r\nChroma subsampling : 4:2:0\r\nBit depth : 8 bits\r\nScan type : Progressive\r\nBits/(Pixel*Frame) : 0.267\r\nStream size : 9.26 GiB (85%)\r\nWriting library : x264 core 148 r2665 a01e339\r\nEncoding settings : cabac=1 / ref=5 / deblock=1:0:0 / analyse=0x3:0x113 / me=umh / subme=8 / psy=1 / psy_rd=1.00:0.00 / mixed_ref=1 / me_range=16 / chroma_me=1 / trellis=1 / 8x8dct=1 / cqm=0 / deadzone=21,11 / fast_pskip=0 / chroma_qp_offset=-2 / threads=24 / lookahead_threads=4 / sliced_threads=0 / nr=0 / decimate=1 / interlaced=0 / bluray_compat=0 / constrained_intra=0 / bframes=3 / b_pyramid=2 / b_adapt=2 / b_bias=0 / direct=3 / weightb=1 / open_gop=0 / weightp=2 / keyint=250 / keyint_min=23 / scenecut=40 / intra_refresh=0 / rc_lookahead=50 / rc=2pass / mbtree=1 / bitrate=9825 / ratetol=1.0 / qcomp=0.60 / qpmin=0 / qpmax=69 / qpstep=4 / cplxblur=20.0 / qblur=0.5 / ip_ratio=1.40 / aq=1:1.00\r\nLanguage : English\r\nDefault : Yes\r\nForced : No\r\n\r\nAudio\r\nID : 2\r\nFormat : DTS\r\nFormat/Info : Digital Theater Systems\r\nMode : 16\r\nFormat settings, Endianness : Big\r\nCodec ID : A_DTS\r\nDuration : 2h 18mn\r\nBit rate mode : Constant\r\nBit rate : 1 509 Kbps\r\nChannel(s) : 6 channels\r\nChannel positions : Front: L C R, Side: L R, LFE\r\nSampling rate : 48.0 KHz\r\nFrame rate : 93.750 fps (512 spf)\r\nBit depth : 24 bits\r\nCompression mode : Lossy\r\nStream size : 1.46 GiB (13%)\r\nLanguage : English\r\nDefault : Yes\r\nForced : No\r\n\r\nText #1\r\nID : 3\r\nFormat : UTF-8\r\nCodec ID : S_TEXT/UTF8\r\nCodec ID/Info : UTF-8 Plain Text\r\nTitle : English regular\r\nDefault : No\r\nForced : No\r\n\r\nText #2\r\nID : 4\r\nFormat : UTF-8\r\nCodec ID : S_TEXT/UTF8\r\nCodec ID/Info : UTF-8 Plain Text\r\nTitle : English sdh\r\nDefault : No\r\nForced : No\r\n\r\nMenu\r\n00:00:00.000 : en:00:00:00.000\r\n00:00:09.259 : en:00:00:09.259\r\n00:01:43.061 : en:00:01:43.061\r\n00:03:51.857 : en:00:03:51.857\r\n00:06:12.289 : en:00:06:12.289\r\n00:09:33.948 : en:00:09:33.948\r\n00:10:43.560 : en:00:10:43.560\r\n00:12:35.713 : en:00:12:35.713\r\n00:13:39.694 : en:00:13:39.694\r\n00:14:48.221 : en:00:14:48.221\r\n00:16:45.922 : en:00:16:45.922\r\n00:18:04.583 : en:00:18:04.583\r\n00:19:21.535 : en:00:19:21.535\r\n00:21:26.619 : en:00:21:26.619\r\n00:24:03.651 : en:00:24:03.651\r\n00:26:47.022 : en:00:26:47.022\r\n00:29:54.668 : en:00:29:54.668\r\n00:31:49.324 : en:00:31:49.324\r\n00:35:51.775 : en:00:35:51.775\r\n00:36:40.615 : en:00:36:40.615\r\n00:37:45.513 : en:00:37:45.513\r\n00:40:19.250 : en:00:40:19.250\r\n00:43:39.200 : en:00:43:39.200\r\n00:45:29.560 : en:00:45:29.560\r\n00:49:22.918 : en:00:49:22.918\r\n00:51:19.952 : en:00:51:19.952\r\n00:54:13.750 : en:00:54:13.750\r\n00:59:48.794 : en:00:59:48.794\r\n01:04:16.061 : en:01:04:16.061\r\n01:08:37.238 : en:01:08:37.238\r\n01:11:07.221 : en:01:11:07.221\r\n01:15:16.387 : en:01:15:16.387\r\n01:16:49.897 : en:01:16:49.897\r\n01:19:37.523 : en:01:19:37.523\r\n01:20:56.894 : en:01:20:56.894\r\n01:25:36.173 : en:01:25:36.173\r\n01:32:12.569 : en:01:32:12.569\r\n01:35:29.015 : en:01:35:29.015\r\n01:36:34.956 : en:01:36:34.956\r\n01:39:28.629 : en:01:39:28.629\r\n01:41:29.959 : en:01:41:29.959\r\n01:42:57.505 : en:01:42:57.505\r\n01:45:00.002 : en:01:45:00.002\r\n01:50:33.710 : en:01:50:33.710\r\n01:53:39.771 : en:01:53:39.771\r\n01:55:22.165 : en:01:55:22.165\r\n01:58:05.453 : en:01:58:05.453\r\n02:01:05.592 : en:02:01:05.592\r\n02:02:32.679 : en:02:02:32.679\r\n02:07:07.578 : en:02:07:07.578\r\n\r\n\r\n[/mediainfo]","torrent":{"xt":"urn:btih:3585624c265178ef3e4678577186bc1e8a5d3534","amp;dn":"Star+Wars+Episode+VII+The+Force+Awakens+2015+1080p+BluRay+x264-R","amp;tr":["udp%3A%2F%2Ftracker.leechers-paradise.org%3A6969","udp%3A%2F%2Fzer0day.ch%3A1337","udp%3A%2F%2Fopen.demonii.com%3A1337","udp%3A%2F%2Ftracker.coppersurfer.tk%3A6969","udp%3A%2F%2Fexodus.desync.com%3A6969"],"infoHash":"3585624c265178ef3e4678577186bc1e8a5d3534","infoHashBuffer":{"type":"Buffer","data":[53,133,98,76,38,81,120,239,62,70,120,87,113,134,188,30,138,93,53,52]},"announce":[],"urlList":[]}}